<?xml version="1.0" encoding="UTF-8"?><svg id="Capa_1" xmlns="http://www.w3.org/2000/svg" xmlns:xlink="http://www.w3.org/1999/xlink" viewBox="0 0 1366 768"><defs><clipPath id="clippath"><rect x="918" y="282" width="448" height="486" style="fill:none;"/></clipPath><linearGradient id="Degradado_sin_nombre_5" x1="1275.47" y1="652.22" x2="1396.41" y2="652.22" gradientUnits="userSpaceOnUse"><stop offset="0" stop-color="#fff"/><stop offset=".22" stop-color="#ffdfeb" stop-opacity=".76"/><stop offset=".6" stop-color="#ffaac9" stop-opacity=".36"/><stop offset=".87" stop-color="#ff88b4" stop-opacity=".1"/><stop offset="1" stop-color="#ff7bac" stop-opacity="0"/></linearGradient><linearGradient id="Degradado_sin_nombre_5-2" x1="1286.14" y1="751.9" x2="1407.1" y2="751.9" xlink:href="#Degradado_sin_nombre_5"/><linearGradient id="Degradado_sin_nombre_5-3" x1="1204.88" y1="780.29" x2="1325.83" y2="780.29" xlink:href="#Degradado_sin_nombre_5"/><linearGradient id="Degradado_sin_nombre_5-4" x1="1360.38" y1="629.45" x2="1481.33" y2="629.45" xlink:href="#Degradado_sin_nombre_5"/><linearGradient id="Degradado_sin_nombre_5-5" x1="1191.61" y1="679.64" x2="1312.56" y2="679.64" xlink:href="#Degradado_sin_nombre_5"/><linearGradient id="Degradado_sin_nombre_5-6" x1="1118.06" y1="796.86" x2="1239.01" y2="796.86" xlink:href="#Degradado_sin_nombre_5"/><linearGradient id="Degradado_sin_nombre_5-7" x1="1095.47" y1="592.22" x2="1216.41" y2="592.22" xlink:href="#Degradado_sin_nombre_5"/><linearGradient id="Degradado_sin_nombre_5-8" x1="1106.14" y1="691.9" x2="1227.1" y2="691.9" xlink:href="#Degradado_sin_nombre_5"/><linearGradient id="Degradado_sin_nombre_5-9" x1="1024.88" y1="720.29" x2="1145.83" y2="720.29" xlink:href="#Degradado_sin_nombre_5"/><linearGradient id="Degradado_sin_nombre_5-10" x1="1180.38" y1="569.45" x2="1301.33" y2="569.45" xlink:href="#Degradado_sin_nombre_5"/><linearGradient id="Degradado_sin_nombre_5-11" x1="1011.61" y1="619.64" x2="1132.56" y2="619.64" xlink:href="#Degradado_sin_nombre_5"/><linearGradient id="Degradado_sin_nombre_5-12" x1="938.06" y1="736.86" x2="1059.01" y2="736.86" xlink:href="#Degradado_sin_nombre_5"/><linearGradient id="Degradado_sin_nombre_5-13" x1="1348.88" y1="523.29" x2="1469.83" y2="523.29" xlink:href="#Degradado_sin_nombre_5"/><linearGradient id="Degradado_sin_nombre_5-14" x1="1335.61" y1="422.64" x2="1456.56" y2="422.64" xlink:href="#Degradado_sin_nombre_5"/><linearGradient id="Degradado_sin_nombre_5-15" x1="1262.06" y1="539.86" x2="1383.01" y2="539.86" xlink:href="#Degradado_sin_nombre_5"/><linearGradient id="Degradado_sin_nombre_5-16" x1="1236.47" y1="341.22" x2="1357.41" y2="341.22" xlink:href="#Degradado_sin_nombre_5"/><linearGradient id="Degradado_sin_nombre_5-17" x1="1247.14" y1="440.9" x2="1368.1" y2="440.9" xlink:href="#Degradado_sin_nombre_5"/><linearGradient id="Degradado_sin_nombre_5-18" x1="1165.88" y1="469.29" x2="1286.83" y2="469.29" xlink:href="#Degradado_sin_nombre_5"/><linearGradient id="Degradado_sin_nombre_5-19" x1="1321.38" y1="318.45" x2="1442.33" y2="318.45" xlink:href="#Degradado_sin_nombre_5"/><linearGradient id="Degradado_sin_nombre_5-20" x1="1152.61" y1="368.64" x2="1273.56" y2="368.64" xlink:href="#Degradado_sin_nombre_5"/><linearGradient id="Degradado_sin_nombre_5-21" x1="1079.06" y1="485.86" x2="1200.01" y2="485.86" xlink:href="#Degradado_sin_nombre_5"/></defs><g id="trama" style="opacity:.42;"><g style="clip-path:url(#clippath);"><g><path id="Trazado_21" d="M1290.89,655.82c-7.37,11.22-5.99,26.04,3.32,35.71,5.19,5.68,12.53,8.9,20.23,8.89,14.47-.05,26.78-10.57,29.1-24.85,.86-6.14-.37-12.39-3.48-17.75l-7.83-13.84c-3.73-6.54-5.1-14.16-3.89-21.6,1.1-7.47,4.69-14.35,10.19-19.53,13.5-13.11,35.08-12.8,48.19,.7,.05,.05,.11,.11,.16,.17,4.17,4.32,7.11,9.68,8.49,15.53,1.46,5.79,1.38,11.86-.22,17.61l-10.42-3.12c2.5-8.43,.61-15.92-5.69-22.47-4.26-4.56-10.25-7.1-16.49-7-11.75-.22-21.82,8.35-23.48,19.99-.82,4.98,.11,10.08,2.64,14.45l7.83,13.84c4.28,7.55,5.85,16.33,4.45,24.89-1.24,8.66-5.37,16.64-11.72,22.64-15.55,15.16-40.45,14.85-55.61-.7-6.26-6.41-10.13-14.77-10.99-23.69-.89-8.83,1.21-17.7,5.97-25.19l9.25,5.33Z" style="fill:url(#Degradado_sin_nombre_5); opacity:.8;"/><path id="Trazado_22" d="M1301.57,755.49c-7.37,11.22-5.99,26.04,3.32,35.71,5.19,5.68,12.53,8.9,20.23,8.89,14.47-.05,26.78-10.56,29.1-24.85,.86-6.14-.37-12.39-3.48-17.75l-7.83-13.84c-3.73-6.54-5.1-14.16-3.89-21.6,1.1-7.47,4.69-14.35,10.19-19.53,13.5-13.11,35.08-12.8,48.19,.7,.05,.06,.11,.11,.16,.17,4.17,4.32,7.11,9.68,8.49,15.53,1.46,5.79,1.39,11.86-.22,17.61l-10.42-3.12c2.5-8.43,.61-15.92-5.69-22.47-4.26-4.56-10.25-7.1-16.49-7-11.75-.22-21.82,8.35-23.48,19.99-.82,4.98,.11,10.08,2.64,14.45l7.83,13.84c4.28,7.55,5.85,16.33,4.45,24.89-1.24,8.66-5.37,16.64-11.72,22.64-15.55,15.16-40.45,14.85-55.61-.7-6.26-6.42-10.13-14.78-10.99-23.7-.89-8.83,1.21-17.7,5.97-25.19l9.26,5.34Z" style="fill:url(#Degradado_sin_nombre_5-2);"/><path id="Trazado_23" d="M1220.31,783.89c-7.37,11.22-5.99,26.04,3.32,35.71,5.19,5.68,12.53,8.9,20.23,8.89,14.47-.05,26.78-10.57,29.1-24.85,.86-6.14-.37-12.39-3.48-17.75l-7.83-13.84c-3.73-6.54-5.1-14.16-3.89-21.6,1.1-7.47,4.69-14.35,10.19-19.53,13.5-13.11,35.08-12.8,48.19,.7,.05,.05,.11,.11,.16,.17,4.17,4.32,7.11,9.69,8.49,15.54,1.46,5.79,1.38,11.86-.22,17.61l-10.42-3.12c2.5-8.43,.61-15.92-5.69-22.47-4.26-4.56-10.25-7.1-16.49-7-11.75-.22-21.82,8.35-23.48,19.99-.82,4.98,.11,10.08,2.64,14.45l7.83,13.84c4.28,7.54,5.85,16.33,4.45,24.89-1.24,8.66-5.37,16.64-11.72,22.64-15.55,15.16-40.45,14.85-55.61-.7-6.26-6.42-10.13-14.78-10.99-23.7-.89-8.83,1.21-17.7,5.97-25.19l9.25,5.33Z" style="fill:url(#Degradado_sin_nombre_5-3);"/><path id="Trazado_24" d="M1375.81,633.04c-7.37,11.22-5.99,26.04,3.32,35.71,5.19,5.68,12.53,8.9,20.23,8.89,14.47-.05,26.78-10.57,29.1-24.85,.86-6.14-.37-12.39-3.48-17.75l-7.83-13.84c-3.73-6.54-5.1-14.16-3.89-21.6,1.1-7.47,4.69-14.35,10.19-19.53,13.5-13.11,35.08-12.8,48.19,.7,.05,.05,.11,.11,.16,.17,4.17,4.32,7.11,9.68,8.49,15.53,1.46,5.79,1.39,11.86-.22,17.61l-10.42-3.12c2.5-8.43,.61-15.92-5.69-22.47-4.26-4.56-10.25-7.1-16.49-7-11.75-.22-21.82,8.35-23.48,19.99-.82,4.98,.11,10.08,2.64,14.45l7.83,13.84c4.28,7.55,5.85,16.33,4.45,24.89-1.24,8.66-5.37,16.64-11.72,22.64-15.55,15.16-40.45,14.85-55.61-.7-6.26-6.42-10.13-14.78-10.99-23.7-.89-8.83,1.21-17.7,5.97-25.19l9.25,5.34Z" style="fill:url(#Degradado_sin_nombre_5-4); opacity:.8;"/><path id="Trazado_25" d="M1207.04,683.23c-7.37,11.22-5.99,26.04,3.32,35.71,5.19,5.68,12.53,8.9,20.23,8.89,14.47-.05,26.78-10.57,29.1-24.85,.86-6.14-.37-12.39-3.48-17.75l-7.83-13.84c-3.73-6.54-5.1-14.16-3.89-21.6,1.1-7.47,4.69-14.35,10.19-19.53,13.5-13.11,35.08-12.8,48.19,.7,.05,.06,.11,.11,.16,.17,4.17,4.32,7.11,9.68,8.49,15.53,1.46,5.79,1.39,11.86-.22,17.61l-10.42-3.12c2.5-8.43,.61-15.92-5.69-22.47-4.26-4.56-10.25-7.1-16.49-7-11.75-.22-21.82,8.35-23.48,19.99-.82,4.98,.11,10.08,2.64,14.45l7.83,13.85c4.28,7.55,5.85,16.33,4.45,24.89-1.24,8.66-5.37,16.64-11.72,22.64-15.55,15.16-40.45,14.85-55.61-.7-6.26-6.42-10.13-14.78-10.99-23.7-.89-8.83,1.21-17.7,5.97-25.19l9.25,5.33Z" style="fill:url(#Degradado_sin_nombre_5-5); opacity:.8;"/><path id="Trazado_26" d="M1133.49,800.49c-7.37,11.22-5.99,26.04,3.32,35.71,5.19,5.68,12.53,8.9,20.23,8.89,7.59,.14,14.92-2.8,20.3-8.16,9.66-8.79,11.87-23.13,5.32-34.43l-7.83-13.84c-3.73-6.54-5.1-14.17-3.89-21.6,1.1-7.47,4.69-14.35,10.19-19.53,13.5-13.11,35.08-12.8,48.19,.7,.05,.06,.11,.11,.16,.17,4.17,4.32,7.11,9.68,8.49,15.53,1.46,5.79,1.39,11.86-.22,17.61l-10.42-3.12c2.5-8.43,.61-15.92-5.69-22.47-4.26-4.56-10.25-7.1-16.49-7-11.75-.22-21.82,8.35-23.48,19.99-.82,4.98,.11,10.08,2.64,14.45l7.83,13.84c4.28,7.55,5.85,16.33,4.44,24.89-1.24,8.66-5.37,16.64-11.72,22.64-15.67,15.16-40.67,14.74-55.83-.93-.02-.02-.05-.05-.07-.07-6.19-6.31-9.98-14.59-10.7-23.4-.89-8.83,1.21-17.7,5.97-25.19l9.25,5.34Z" style="fill:url(#Degradado_sin_nombre_5-6);"/><path id="Trazado_21-2" d="M1110.89,595.82c-7.37,11.22-5.99,26.04,3.32,35.71,5.19,5.68,12.53,8.9,20.23,8.89,14.47-.05,26.78-10.57,29.1-24.85,.86-6.14-.37-12.39-3.48-17.75l-7.83-13.84c-3.73-6.54-5.1-14.16-3.89-21.6,1.1-7.47,4.69-14.35,10.19-19.53,13.5-13.11,35.08-12.8,48.19,.7,.05,.05,.11,.11,.16,.17,4.17,4.32,7.11,9.68,8.49,15.53,1.46,5.79,1.38,11.86-.22,17.61l-10.42-3.12c2.5-8.43,.61-15.92-5.69-22.47-4.26-4.56-10.25-7.1-16.49-7-11.75-.22-21.82,8.35-23.48,19.99-.82,4.98,.11,10.08,2.64,14.45l7.83,13.84c4.28,7.55,5.85,16.33,4.45,24.89-1.24,8.66-5.37,16.64-11.72,22.64-15.55,15.16-40.45,14.85-55.61-.7-6.26-6.41-10.13-14.77-10.99-23.69-.89-8.83,1.21-17.7,5.97-25.19l9.25,5.33Z" style="fill:url(#Degradado_sin_nombre_5-7); opacity:.7;"/><path id="Trazado_22-2" d="M1121.57,695.49c-7.37,11.22-5.99,26.04,3.32,35.71,5.19,5.68,12.53,8.9,20.23,8.89,14.47-.05,26.78-10.56,29.1-24.85,.86-6.14-.37-12.39-3.48-17.75l-7.83-13.84c-3.73-6.54-5.1-14.16-3.89-21.6,1.1-7.47,4.69-14.35,10.19-19.53,13.5-13.11,35.08-12.8,48.19,.7,.05,.06,.11,.11,.16,.17,4.17,4.32,7.11,9.68,8.49,15.53,1.46,5.79,1.39,11.86-.22,17.61l-10.42-3.12c2.5-8.43,.61-15.92-5.69-22.47-4.26-4.56-10.25-7.1-16.49-7-11.75-.22-21.82,8.35-23.48,19.99-.82,4.98,.11,10.08,2.64,14.45l7.83,13.84c4.28,7.55,5.85,16.33,4.45,24.89-1.24,8.66-5.37,16.64-11.72,22.64-15.55,15.16-40.45,14.85-55.61-.7-6.26-6.42-10.13-14.78-10.99-23.7-.89-8.83,1.21-17.7,5.97-25.19l9.26,5.34Z" style="fill:url(#Degradado_sin_nombre_5-8); opacity:.8;"/><path id="Trazado_23-2" d="M1040.31,723.89c-7.37,11.22-5.99,26.04,3.32,35.71,5.19,5.68,12.53,8.9,20.23,8.89,14.47-.05,26.78-10.57,29.1-24.85,.86-6.14-.37-12.39-3.48-17.75l-7.83-13.84c-3.73-6.54-5.1-14.16-3.89-21.6,1.1-7.47,4.69-14.35,10.19-19.53,13.5-13.11,35.08-12.8,48.19,.7,.05,.05,.11,.11,.16,.17,4.17,4.32,7.11,9.69,8.49,15.54,1.46,5.79,1.38,11.86-.22,17.61l-10.42-3.12c2.5-8.43,.61-15.92-5.69-22.47-4.26-4.56-10.25-7.1-16.49-7-11.75-.22-21.82,8.35-23.48,19.99-.82,4.98,.11,10.08,2.64,14.45l7.83,13.84c4.28,7.54,5.85,16.33,4.45,24.89-1.24,8.66-5.37,16.64-11.72,22.64-15.55,15.16-40.45,14.85-55.61-.7-6.26-6.42-10.13-14.78-10.99-23.7-.89-8.83,1.21-17.7,5.97-25.19l9.25,5.33Z" style="fill:url(#Degradado_sin_nombre_5-9); opacity:.7;"/><path id="Trazado_24-2" d="M1195.81,573.04c-7.37,11.22-5.99,26.04,3.32,35.71,5.19,5.68,12.53,8.9,20.23,8.89,14.47-.05,26.78-10.57,29.1-24.85,.86-6.14-.37-12.39-3.48-17.75l-7.83-13.84c-3.73-6.54-5.1-14.16-3.89-21.6,1.1-7.47,4.69-14.35,10.19-19.53,13.5-13.11,35.08-12.8,48.19,.7,.05,.05,.11,.11,.16,.17,4.17,4.32,7.11,9.68,8.49,15.53,1.46,5.79,1.39,11.86-.22,17.61l-10.42-3.12c2.5-8.43,.61-15.92-5.69-22.47-4.26-4.56-10.25-7.1-16.49-7-11.75-.22-21.82,8.35-23.48,19.99-.82,4.98,.11,10.08,2.64,14.45l7.83,13.84c4.28,7.55,5.85,16.33,4.45,24.89-1.24,8.66-5.37,16.64-11.72,22.64-15.55,15.16-40.45,14.85-55.61-.7-6.26-6.42-10.13-14.78-10.99-23.7-.89-8.83,1.21-17.7,5.97-25.19l9.25,5.34Z" style="fill:url(#Degradado_sin_nombre_5-10); opacity:.7;"/><path id="Trazado_25-2" d="M1027.04,623.23c-7.37,11.22-5.99,26.04,3.32,35.71,5.19,5.68,12.53,8.9,20.23,8.89,14.47-.05,26.78-10.57,29.1-24.85,.86-6.14-.37-12.39-3.48-17.75l-7.83-13.84c-3.73-6.54-5.1-14.16-3.89-21.6,1.1-7.47,4.69-14.35,10.19-19.53,13.5-13.11,35.08-12.8,48.19,.7,.05,.06,.11,.11,.16,.17,4.17,4.32,7.11,9.68,8.49,15.53,1.46,5.79,1.39,11.86-.22,17.61l-10.42-3.12c2.5-8.43,.61-15.92-5.69-22.47-4.26-4.56-10.25-7.1-16.49-7-11.75-.22-21.82,8.35-23.48,19.99-.82,4.98,.11,10.08,2.64,14.45l7.83,13.85c4.28,7.55,5.85,16.33,4.45,24.89-1.24,8.66-5.37,16.64-11.72,22.64-15.55,15.16-40.45,14.85-55.61-.7-6.26-6.42-10.13-14.78-10.99-23.7-.89-8.83,1.21-17.7,5.97-25.19l9.25,5.33Z" style="fill:url(#Degradado_sin_nombre_5-11); opacity:.7;"/><path id="Trazado_26-2" d="M953.49,740.49c-7.37,11.22-5.99,26.04,3.32,35.71,5.19,5.68,12.53,8.9,20.23,8.89,7.59,.14,14.92-2.8,20.3-8.16,9.66-8.79,11.87-23.13,5.32-34.43l-7.83-13.84c-3.73-6.54-5.1-14.17-3.89-21.6,1.1-7.47,4.69-14.35,10.19-19.53,13.5-13.11,35.08-12.8,48.19,.7,.05,.06,.11,.11,.16,.17,4.17,4.32,7.11,9.68,8.49,15.53,1.46,5.79,1.39,11.86-.22,17.61l-10.42-3.12c2.5-8.43,.61-15.92-5.69-22.47-4.26-4.56-10.25-7.1-16.49-7-11.75-.22-21.82,8.35-23.48,19.99-.82,4.98,.11,10.08,2.64,14.45l7.83,13.84c4.28,7.55,5.85,16.33,4.44,24.89-1.24,8.66-5.37,16.64-11.72,22.64-15.67,15.16-40.67,14.74-55.83-.93-.02-.02-.05-.05-.07-.07-6.19-6.31-9.98-14.59-10.7-23.4-.89-8.83,1.21-17.7,5.97-25.19l9.25,5.34Z" style="fill:url(#Degradado_sin_nombre_5-12); opacity:.7;"/><path id="Trazado_23-3" d="M1364.31,526.89c-7.37,11.22-5.99,26.04,3.32,35.71,5.19,5.68,12.53,8.9,20.23,8.89,14.47-.05,26.78-10.57,29.1-24.85,.86-6.14-.37-12.39-3.48-17.75l-7.83-13.84c-3.73-6.54-5.1-14.16-3.89-21.6,1.1-7.47,4.69-14.35,10.19-19.53,13.5-13.11,35.08-12.8,48.19,.7,.05,.05,.11,.11,.16,.17,4.17,4.32,7.11,9.69,8.49,15.54,1.46,5.79,1.38,11.86-.22,17.61l-10.42-3.12c2.5-8.43,.61-15.92-5.69-22.47-4.26-4.56-10.25-7.1-16.49-7-11.75-.22-21.82,8.35-23.48,19.99-.82,4.98,.11,10.08,2.64,14.45l7.83,13.84c4.28,7.54,5.85,16.33,4.45,24.89-1.24,8.66-5.37,16.64-11.72,22.64-15.55,15.16-40.45,14.85-55.61-.7-6.26-6.42-10.13-14.78-10.99-23.7-.89-8.83,1.21-17.7,5.97-25.19l9.25,5.33Z" style="fill:url(#Degradado_sin_nombre_5-13); opacity:.7;"/><path id="Trazado_25-3" d="M1351.04,426.23c-7.37,11.22-5.99,26.04,3.32,35.71,5.19,5.68,12.53,8.9,20.23,8.89,14.47-.05,26.78-10.57,29.1-24.85,.86-6.14-.37-12.39-3.48-17.75l-7.83-13.84c-3.73-6.54-5.1-14.16-3.89-21.6,1.1-7.47,4.69-14.35,10.19-19.53,13.5-13.11,35.08-12.8,48.19,.7,.05,.06,.11,.11,.16,.17,4.17,4.32,7.11,9.68,8.49,15.53,1.46,5.79,1.39,11.86-.22,17.61l-10.42-3.12c2.5-8.43,.61-15.92-5.69-22.47-4.26-4.56-10.25-7.1-16.49-7-11.75-.22-21.82,8.35-23.48,19.99-.82,4.98,.11,10.08,2.64,14.45l7.83,13.85c4.28,7.55,5.85,16.33,4.45,24.89-1.24,8.66-5.37,16.64-11.72,22.64-15.55,15.16-40.45,14.85-55.61-.7-6.26-6.42-10.13-14.78-10.99-23.7-.89-8.83,1.21-17.7,5.97-25.19l9.25,5.33Z" style="fill:url(#Degradado_sin_nombre_5-14); opacity:.6;"/><path id="Trazado_26-3" d="M1277.49,543.49c-7.37,11.22-5.99,26.04,3.32,35.71,5.19,5.68,12.53,8.9,20.23,8.89,7.59,.14,14.92-2.8,20.3-8.16,9.66-8.79,11.87-23.13,5.32-34.43l-7.83-13.84c-3.73-6.54-5.1-14.17-3.89-21.6,1.1-7.47,4.69-14.35,10.19-19.53,13.5-13.11,35.08-12.8,48.19,.7,.05,.06,.11,.11,.16,.17,4.17,4.32,7.11,9.68,8.49,15.53,1.46,5.79,1.39,11.86-.22,17.61l-10.42-3.12c2.5-8.43,.61-15.92-5.69-22.47-4.26-4.56-10.25-7.1-16.49-7-11.75-.22-21.82,8.35-23.48,19.99-.82,4.98,.11,10.08,2.64,14.45l7.83,13.84c4.28,7.55,5.85,16.33,4.44,24.89-1.24,8.66-5.37,16.64-11.72,22.64-15.67,15.16-40.67,14.74-55.83-.93-.02-.02-.05-.05-.07-.07-6.19-6.31-9.98-14.59-10.7-23.4-.89-8.83,1.21-17.7,5.97-25.19l9.25,5.34Z" style="fill:url(#Degradado_sin_nombre_5-15); opacity:.7;"/><path id="Trazado_21-3" d="M1251.89,344.82c-7.37,11.22-5.99,26.04,3.32,35.71,5.19,5.68,12.53,8.9,20.23,8.89,14.47-.05,26.78-10.57,29.1-24.85,.86-6.14-.37-12.39-3.48-17.75l-7.83-13.84c-3.73-6.54-5.1-14.16-3.89-21.6,1.1-7.47,4.69-14.35,10.19-19.53,13.5-13.11,35.08-12.8,48.19,.7,.05,.05,.11,.11,.16,.17,4.17,4.32,7.11,9.68,8.49,15.53,1.46,5.79,1.38,11.86-.22,17.61l-10.42-3.12c2.5-8.43,.61-15.92-5.69-22.47-4.26-4.56-10.25-7.1-16.49-7-11.75-.22-21.82,8.35-23.48,19.99-.82,4.98,.11,10.08,2.64,14.45l7.83,13.84c4.28,7.55,5.85,16.33,4.45,24.89-1.24,8.66-5.37,16.64-11.72,22.64-15.55,15.16-40.45,14.85-55.61-.7-6.26-6.41-10.13-14.77-10.99-23.69-.89-8.83,1.21-17.7,5.97-25.19l9.25,5.33Z" style="fill:url(#Degradado_sin_nombre_5-16); opacity:.5;"/><path id="Trazado_22-3" d="M1262.57,444.49c-7.37,11.22-5.99,26.04,3.32,35.71,5.19,5.68,12.53,8.9,20.23,8.89,14.47-.05,26.78-10.56,29.1-24.85,.86-6.14-.37-12.39-3.48-17.75l-7.83-13.84c-3.73-6.54-5.1-14.16-3.89-21.6,1.1-7.47,4.69-14.35,10.19-19.53,13.5-13.11,35.08-12.8,48.19,.7,.05,.06,.11,.11,.16,.17,4.17,4.32,7.11,9.68,8.49,15.53,1.46,5.79,1.39,11.86-.22,17.61l-10.42-3.12c2.5-8.43,.61-15.92-5.69-22.47-4.26-4.56-10.25-7.1-16.49-7-11.75-.22-21.82,8.35-23.48,19.99-.82,4.98,.11,10.08,2.64,14.45l7.83,13.84c4.28,7.55,5.85,16.33,4.45,24.89-1.24,8.66-5.37,16.64-11.72,22.64-15.55,15.16-40.45,14.85-55.61-.7-6.26-6.42-10.13-14.78-10.99-23.7-.89-8.83,1.21-17.7,5.97-25.19l9.26,5.34Z" style="fill:url(#Degradado_sin_nombre_5-17); opacity:.6;"/><path id="Trazado_23-4" d="M1181.31,472.89c-7.37,11.22-5.99,26.04,3.32,35.71,5.19,5.68,12.53,8.9,20.23,8.89,14.47-.05,26.78-10.57,29.1-24.85,.86-6.14-.37-12.39-3.48-17.75l-7.83-13.84c-3.73-6.54-5.1-14.16-3.89-21.6,1.1-7.47,4.69-14.35,10.19-19.53,13.5-13.11,35.08-12.8,48.19,.7,.05,.05,.11,.11,.16,.17,4.17,4.32,7.11,9.69,8.49,15.54,1.46,5.79,1.38,11.86-.22,17.61l-10.42-3.12c2.5-8.43,.61-15.92-5.69-22.47-4.26-4.56-10.25-7.1-16.49-7-11.75-.22-21.82,8.35-23.48,19.99-.82,4.98,.11,10.08,2.64,14.45l7.83,13.84c4.28,7.54,5.85,16.33,4.45,24.89-1.24,8.66-5.37,16.64-11.72,22.64-15.55,15.16-40.45,14.85-55.61-.7-6.26-6.42-10.13-14.78-10.99-23.7-.89-8.83,1.21-17.7,5.97-25.19l9.25,5.33Z" style="fill:url(#Degradado_sin_nombre_5-18); opacity:.6;"/><path id="Trazado_24-3" d="M1336.81,322.04c-7.37,11.22-5.99,26.04,3.32,35.71,5.19,5.68,12.53,8.9,20.23,8.89,14.47-.05,26.78-10.57,29.1-24.85,.86-6.14-.37-12.39-3.48-17.75l-7.83-13.84c-3.73-6.54-5.1-14.16-3.89-21.6,1.1-7.47,4.69-14.35,10.19-19.53,13.5-13.11,35.08-12.8,48.19,.7,.05,.05,.11,.11,.16,.17,4.17,4.32,7.11,9.68,8.49,15.53,1.46,5.79,1.39,11.86-.22,17.61l-10.42-3.12c2.5-8.43,.61-15.92-5.69-22.47-4.26-4.56-10.25-7.1-16.49-7-11.75-.22-21.82,8.35-23.48,19.99-.82,4.98,.11,10.08,2.64,14.45l7.83,13.84c4.28,7.55,5.85,16.33,4.45,24.89-1.24,8.66-5.37,16.64-11.72,22.64-15.55,15.16-40.45,14.85-55.61-.7-6.26-6.42-10.13-14.78-10.99-23.7-.89-8.83,1.21-17.7,5.97-25.19l9.25,5.34Z" style="fill:url(#Degradado_sin_nombre_5-19); opacity:.5;"/><path id="Trazado_25-4" d="M1168.04,372.23c-7.37,11.22-5.99,26.04,3.32,35.71,5.19,5.68,12.53,8.9,20.23,8.89,14.47-.05,26.78-10.57,29.1-24.85,.86-6.14-.37-12.39-3.48-17.75l-7.83-13.84c-3.73-6.54-5.1-14.16-3.89-21.6,1.1-7.47,4.69-14.35,10.19-19.53,13.5-13.11,35.08-12.8,48.19,.7,.05,.06,.11,.11,.16,.17,4.17,4.32,7.11,9.68,8.49,15.53,1.46,5.79,1.39,11.86-.22,17.61l-10.42-3.12c2.5-8.43,.61-15.92-5.69-22.47-4.26-4.56-10.25-7.1-16.49-7-11.75-.22-21.82,8.35-23.48,19.99-.82,4.98,.11,10.08,2.64,14.45l7.83,13.85c4.28,7.55,5.85,16.33,4.45,24.89-1.24,8.66-5.37,16.64-11.72,22.64-15.55,15.16-40.45,14.85-55.61-.7-6.26-6.42-10.13-14.78-10.99-23.7-.89-8.83,1.21-17.7,5.97-25.19l9.25,5.33Z" style="fill:url(#Degradado_sin_nombre_5-20); opacity:.5;"/><path id="Trazado_26-4" d="M1094.49,489.49c-7.37,11.22-5.99,26.04,3.32,35.71,5.19,5.68,12.53,8.9,20.23,8.89,7.59,.14,14.92-2.8,20.3-8.16,9.66-8.79,11.87-23.13,5.32-34.43l-7.83-13.84c-3.73-6.54-5.1-14.17-3.89-21.6,1.1-7.47,4.69-14.35,10.19-19.53,13.5-13.11,35.08-12.8,48.19,.7,.05,.06,.11,.11,.16,.17,4.17,4.32,7.11,9.68,8.49,15.53,1.46,5.79,1.39,11.86-.22,17.61l-10.42-3.12c2.5-8.43,.61-15.92-5.69-22.47-4.26-4.56-10.25-7.1-16.49-7-11.75-.22-21.82,8.35-23.48,19.99-.82,4.98,.11,10.08,2.64,14.45l7.83,13.84c4.28,7.55,5.85,16.33,4.44,24.89-1.24,8.66-5.37,16.64-11.72,22.64-15.67,15.16-40.67,14.74-55.83-.93-.02-.02-.05-.05-.07-.07-6.19-6.31-9.98-14.59-10.7-23.4-.89-8.83,1.21-17.7,5.97-25.19l9.25,5.34Z" style="fill:url(#Degradado_sin_nombre_5-21); opacity:.6;"/></g></g></g></svg>