<?xml version="1.0" encoding="UTF-8"?><svg id="Capa_1" xmlns="http://www.w3.org/2000/svg" xmlns:xlink="http://www.w3.org/1999/xlink" viewBox="0 0 1022.54 415.39"><defs><clipPath id="clippath"><rect id="degrade" x="180.62" y="61.18" width="841.92" height="111" transform="translate(1203.16 233.37) rotate(180)" style="fill:none; stroke-width:0px;"/></clipPath><clipPath id="clippath-1"><rect x="180.62" y="61.18" width="312.03" height="338.49" transform="translate(673.26 460.86) rotate(180)" style="fill:none; stroke-width:0px;"/></clipPath><linearGradient id="Degradado_sin_nombre_5" x1="3472.67" y1="-2797.89" x2="3556.91" y2="-2797.89" gradientTransform="translate(3716.34 -2656.07) rotate(-180)" gradientUnits="userSpaceOnUse"><stop offset="0" stop-color="#fff"/><stop offset=".22" stop-color="#fadfea" stop-opacity=".76"/><stop offset=".6" stop-color="#f4a9c8" stop-opacity=".36"/><stop offset=".87" stop-color="#ef87b2" stop-opacity=".1"/><stop offset="1" stop-color="#ee7aaa" stop-opacity="0"/></linearGradient><linearGradient id="Degradado_sin_nombre_5-2" x1="3480.1" y1="-2728.46" x2="3564.35" y2="-2728.46" xlink:href="#Degradado_sin_nombre_5"/><linearGradient id="Degradado_sin_nombre_5-3" x1="3423.51" y1="-2708.69" x2="3507.75" y2="-2708.69" xlink:href="#Degradado_sin_nombre_5"/><linearGradient id="Degradado_sin_nombre_5-4" x1="3531.81" y1="-2813.75" x2="3616.05" y2="-2813.75" xlink:href="#Degradado_sin_nombre_5"/><linearGradient id="Degradado_sin_nombre_5-5" x1="3414.26" y1="-2778.79" x2="3498.5" y2="-2778.79" xlink:href="#Degradado_sin_nombre_5"/><linearGradient id="Degradado_sin_nombre_5-6" x1="3363.04" y1="-2697.15" x2="3447.28" y2="-2697.15" xlink:href="#Degradado_sin_nombre_5"/><linearGradient id="Degradado_sin_nombre_5-7" x1="3347.3" y1="-2839.67" x2="3431.54" y2="-2839.67" xlink:href="#Degradado_sin_nombre_5"/><linearGradient id="Degradado_sin_nombre_5-8" x1="3354.74" y1="-2770.25" x2="3438.98" y2="-2770.25" xlink:href="#Degradado_sin_nombre_5"/><linearGradient id="Degradado_sin_nombre_5-9" x1="3298.14" y1="-2750.48" x2="3382.38" y2="-2750.48" xlink:href="#Degradado_sin_nombre_5"/><linearGradient id="Degradado_sin_nombre_5-10" x1="3406.44" y1="-2855.54" x2="3490.68" y2="-2855.54" xlink:href="#Degradado_sin_nombre_5"/><linearGradient id="Degradado_sin_nombre_5-11" x1="3288.9" y1="-2820.58" x2="3373.14" y2="-2820.58" xlink:href="#Degradado_sin_nombre_5"/><linearGradient id="Degradado_sin_nombre_5-12" x1="3237.67" y1="-2738.93" x2="3321.91" y2="-2738.93" xlink:href="#Degradado_sin_nombre_5"/><linearGradient id="Degradado_sin_nombre_5-13" x1="3572.96" y1="-2976.88" x2="3657.2" y2="-2976.88" xlink:href="#Degradado_sin_nombre_5"/><linearGradient id="Degradado_sin_nombre_5-14" x1="3580.4" y1="-2907.46" x2="3664.64" y2="-2907.46" xlink:href="#Degradado_sin_nombre_5"/><linearGradient id="Degradado_sin_nombre_5-15" x1="3523.8" y1="-2887.68" x2="3608.04" y2="-2887.68" xlink:href="#Degradado_sin_nombre_5"/><linearGradient id="Degradado_sin_nombre_5-16" x1="3632.1" y1="-2992.74" x2="3716.34" y2="-2992.74" xlink:href="#Degradado_sin_nombre_5"/><linearGradient id="Degradado_sin_nombre_5-17" x1="3514.56" y1="-2957.79" x2="3598.8" y2="-2957.79" xlink:href="#Degradado_sin_nombre_5"/><linearGradient id="Degradado_sin_nombre_5-18" x1="3463.33" y1="-2876.14" x2="3547.57" y2="-2876.14" xlink:href="#Degradado_sin_nombre_5"/><linearGradient id="Degradado_sin_nombre_5-19" x1="3445.51" y1="-3014.49" x2="3529.74" y2="-3014.49" xlink:href="#Degradado_sin_nombre_5"/><linearGradient id="Degradado_sin_nombre_5-20" x1="3452.94" y1="-2945.07" x2="3537.18" y2="-2945.07" xlink:href="#Degradado_sin_nombre_5"/><linearGradient id="Degradado_sin_nombre_5-21" x1="3396.35" y1="-2925.29" x2="3480.58" y2="-2925.29" xlink:href="#Degradado_sin_nombre_5"/><linearGradient id="Degradado_sin_nombre_5-22" x1="3504.65" y1="-3030.35" x2="3588.89" y2="-3030.35" xlink:href="#Degradado_sin_nombre_5"/><linearGradient id="Degradado_sin_nombre_5-23" x1="3387.1" y1="-2995.4" x2="3471.34" y2="-2995.4" xlink:href="#Degradado_sin_nombre_5"/><linearGradient id="Degradado_sin_nombre_5-24" x1="3335.87" y1="-2913.75" x2="3420.12" y2="-2913.75" xlink:href="#Degradado_sin_nombre_5"/></defs><g style="clip-path:url(#clippath);"><rect id="degrade-2" x="180.62" y="61.18" width="841.92" height="111" transform="translate(1203.16 233.37) rotate(180)" style="fill:#065faa; stroke-width:0px;"/><g id="trama" style="opacity:.42;"><g style="clip-path:url(#clippath-1);"><path id="Trazado_21" d="m232.93,139.32c5.14-7.81,4.17-18.14-2.31-24.87-3.62-3.95-8.73-6.2-14.09-6.19-10.08.04-18.65,7.36-20.27,17.31-.6,4.28.26,8.63,2.42,12.36l5.45,9.64c2.6,4.56,3.55,9.87,2.71,15.04-.77,5.2-3.27,9.99-7.1,13.6-9.4,9.13-24.43,8.92-33.56-.49-.04-.04-.07-.08-.11-.11-2.91-3.01-4.95-6.74-5.91-10.82-1.02-4.03-.96-8.26.15-12.26l7.26,2.18c-1.74,5.87-.42,11.09,3.96,15.65,2.97,3.17,7.14,4.95,11.49,4.88,8.18.16,15.2-5.82,16.35-13.92.57-3.47-.08-7.02-1.84-10.06l-5.45-9.64c-2.98-5.26-4.08-11.37-3.1-17.34.86-6.03,3.74-11.59,8.16-15.77,10.83-10.56,28.17-10.34,38.73.49,4.36,4.47,7.06,10.29,7.65,16.5.62,6.15-.84,12.33-4.16,17.55l-6.44-3.72Z" style="fill:url(#Degradado_sin_nombre_5); opacity:.8; stroke-width:0px;"/><path id="Trazado_22" d="m225.49,69.9c5.14-7.81,4.17-18.14-2.31-24.87-3.62-3.95-8.73-6.2-14.09-6.19-10.08.04-18.65,7.36-20.27,17.31-.6,4.28.26,8.63,2.42,12.36l5.45,9.64c2.6,4.56,3.55,9.87,2.71,15.04-.77,5.2-3.27,9.99-7.1,13.6-9.4,9.13-24.43,8.92-33.56-.49-.04-.04-.07-.08-.11-.12-2.91-3.01-4.95-6.74-5.91-10.82-1.02-4.03-.96-8.26.15-12.26l7.26,2.18c-1.74,5.87-.42,11.09,3.96,15.65,2.97,3.17,7.14,4.95,11.49,4.88,8.18.16,15.2-5.82,16.35-13.92.57-3.47-.08-7.02-1.84-10.06l-5.45-9.64c-2.98-5.26-4.07-11.37-3.1-17.34.86-6.03,3.74-11.59,8.16-15.77,10.83-10.56,28.17-10.34,38.73.49,4.36,4.47,7.06,10.29,7.65,16.5.62,6.15-.84,12.33-4.16,17.55l-6.45-3.72Z" style="fill:url(#Degradado_sin_nombre_5-2); stroke-width:0px;"/><path id="Trazado_23" d="m282.09,50.12c5.14-7.81,4.17-18.14-2.31-24.87-3.62-3.95-8.73-6.2-14.09-6.19-10.08.04-18.65,7.36-20.27,17.31-.6,4.28.26,8.63,2.42,12.36l5.45,9.64c2.6,4.56,3.55,9.87,2.71,15.04-.77,5.2-3.27,9.99-7.1,13.6-9.4,9.13-24.43,8.92-33.56-.49-.04-.04-.07-.08-.11-.11-2.91-3.01-4.95-6.75-5.91-10.82-1.02-4.03-.96-8.26.15-12.26l7.26,2.18c-1.74,5.87-.42,11.09,3.96,15.65,2.97,3.17,7.14,4.95,11.49,4.88,8.18.16,15.2-5.82,16.35-13.92.57-3.47-.08-7.02-1.84-10.06l-5.45-9.64c-2.98-5.25-4.08-11.37-3.1-17.34.86-6.03,3.74-11.59,8.16-15.77,10.83-10.56,28.17-10.34,38.73.49,4.36,4.47,7.06,10.29,7.65,16.5.62,6.15-.84,12.33-4.16,17.55l-6.44-3.72Z" style="fill:url(#Degradado_sin_nombre_5-3); stroke-width:0px;"/><path id="Trazado_24" d="m173.79,155.18c5.14-7.81,4.17-18.14-2.31-24.87-3.62-3.95-8.73-6.2-14.09-6.19-10.08.04-18.65,7.36-20.27,17.31-.6,4.28.26,8.63,2.42,12.36l5.45,9.64c2.6,4.56,3.55,9.87,2.71,15.04-.77,5.2-3.27,9.99-7.1,13.6-9.4,9.13-24.43,8.92-33.56-.49-.04-.04-.07-.08-.11-.12-2.91-3.01-4.95-6.74-5.91-10.82-1.02-4.03-.96-8.26.15-12.26l7.26,2.18c-1.74,5.87-.42,11.09,3.96,15.65,2.97,3.17,7.14,4.95,11.49,4.88,8.18.16,15.2-5.82,16.35-13.92.57-3.47-.08-7.02-1.84-10.06l-5.45-9.64c-2.98-5.26-4.08-11.37-3.1-17.34.86-6.03,3.74-11.59,8.16-15.77,10.83-10.56,28.17-10.34,38.73.49,4.36,4.47,7.06,10.29,7.65,16.5.62,6.15-.84,12.33-4.16,17.55l-6.45-3.72Z" style="fill:url(#Degradado_sin_nombre_5-4); opacity:.8; stroke-width:0px;"/><path id="Trazado_25" d="m291.34,120.22c5.14-7.81,4.17-18.14-2.31-24.87-3.62-3.95-8.73-6.2-14.09-6.19-10.08.04-18.65,7.36-20.27,17.31-.6,4.28.26,8.63,2.42,12.36l5.45,9.64c2.6,4.56,3.55,9.87,2.71,15.04-.77,5.2-3.27,9.99-7.1,13.6-9.4,9.13-24.43,8.92-33.56-.49-.04-.04-.07-.08-.11-.12-2.91-3.01-4.95-6.74-5.91-10.82-1.02-4.03-.96-8.26.15-12.26l7.26,2.18c-1.74,5.87-.42,11.09,3.96,15.65,2.97,3.17,7.14,4.95,11.49,4.88,8.18.16,15.2-5.82,16.35-13.92.57-3.47-.08-7.02-1.84-10.06l-5.45-9.64c-2.98-5.26-4.08-11.37-3.1-17.34.86-6.03,3.74-11.59,8.16-15.77,10.83-10.56,28.17-10.34,38.73.49,4.36,4.47,7.06,10.29,7.65,16.5.62,6.15-.84,12.33-4.16,17.55l-6.44-3.72Z" style="fill:url(#Degradado_sin_nombre_5-5); opacity:.8; stroke-width:0px;"/><path id="Trazado_26" d="m342.56,38.56c5.14-7.81,4.18-18.14-2.31-24.87-3.62-3.95-8.73-6.2-14.09-6.19-5.29-.1-10.39,1.95-14.14,5.69-6.73,6.13-8.27,16.11-3.71,23.98l5.45,9.64c2.6,4.56,3.55,9.87,2.71,15.04-.77,5.2-3.27,9.99-7.1,13.6-9.4,9.13-24.43,8.92-33.56-.49-.04-.04-.07-.08-.11-.12-2.91-3.01-4.95-6.74-5.91-10.82-1.02-4.03-.96-8.26.15-12.26l7.26,2.18c-1.74,5.87-.42,11.09,3.96,15.65,2.97,3.17,7.14,4.95,11.49,4.88,8.18.16,15.2-5.82,16.35-13.92.57-3.47-.08-7.02-1.84-10.06l-5.45-9.64c-2.98-5.26-4.07-11.37-3.1-17.34.86-6.03,3.74-11.59,8.16-15.77,10.92-10.56,28.32-10.27,38.88.65.02.02.03.03.05.05,4.31,4.4,6.95,10.16,7.46,16.3.62,6.15-.84,12.33-4.16,17.55l-6.45-3.72Z" style="fill:url(#Degradado_sin_nombre_5-6); stroke-width:0px;"/><path id="Trazado_21-2" d="m358.3,181.11c5.14-7.81,4.17-18.14-2.31-24.87-3.62-3.95-8.73-6.2-14.09-6.19-10.08.04-18.65,7.36-20.27,17.31-.6,4.28.26,8.63,2.42,12.36l5.45,9.64c2.6,4.56,3.55,9.87,2.71,15.04-.77,5.2-3.27,9.99-7.1,13.6-9.4,9.13-24.43,8.92-33.56-.49-.04-.04-.07-.08-.11-.11-2.91-3.01-4.95-6.74-5.91-10.82-1.02-4.03-.96-8.26.15-12.26l7.26,2.18c-1.74,5.87-.42,11.09,3.96,15.65,2.97,3.17,7.14,4.95,11.49,4.88,8.18.16,15.2-5.82,16.35-13.92.57-3.47-.08-7.02-1.84-10.06l-5.45-9.64c-2.98-5.26-4.08-11.37-3.1-17.34.86-6.03,3.74-11.59,8.16-15.77,10.83-10.56,28.17-10.34,38.73.49,4.36,4.47,7.06,10.29,7.65,16.5.62,6.15-.84,12.33-4.16,17.55l-6.44-3.72Z" style="fill:url(#Degradado_sin_nombre_5-7); opacity:.7; stroke-width:0px;"/><path id="Trazado_22-2" d="m350.86,111.69c5.14-7.81,4.17-18.14-2.31-24.87-3.62-3.95-8.73-6.2-14.09-6.19-10.08.04-18.65,7.36-20.27,17.31-.6,4.28.26,8.63,2.42,12.36l5.45,9.64c2.6,4.56,3.55,9.87,2.71,15.04-.77,5.2-3.27,9.99-7.1,13.6-9.4,9.13-24.43,8.92-33.56-.49-.04-.04-.07-.08-.11-.12-2.91-3.01-4.95-6.74-5.91-10.82-1.02-4.03-.96-8.26.15-12.26l7.26,2.18c-1.74,5.87-.42,11.09,3.96,15.65,2.97,3.17,7.14,4.95,11.49,4.88,8.18.16,15.2-5.82,16.35-13.92.57-3.47-.08-7.02-1.84-10.06l-5.45-9.64c-2.98-5.26-4.07-11.37-3.1-17.34.86-6.03,3.74-11.59,8.16-15.77,10.83-10.56,28.17-10.34,38.73.49,4.36,4.47,7.06,10.29,7.65,16.5.62,6.15-.84,12.33-4.16,17.55l-6.45-3.72Z" style="fill:url(#Degradado_sin_nombre_5-8); opacity:.8; stroke-width:0px;"/><path id="Trazado_23-2" d="m407.46,91.91c5.14-7.81,4.17-18.14-2.31-24.87-3.62-3.95-8.73-6.2-14.09-6.19-10.08.04-18.65,7.36-20.27,17.31-.6,4.28.26,8.63,2.42,12.36l5.45,9.64c2.6,4.56,3.55,9.87,2.71,15.04-.77,5.2-3.27,9.99-7.1,13.6-9.4,9.13-24.43,8.92-33.56-.49-.04-.04-.07-.08-.11-.11-2.91-3.01-4.95-6.75-5.91-10.82-1.02-4.03-.96-8.26.15-12.26l7.26,2.18c-1.74,5.87-.42,11.09,3.96,15.65,2.97,3.17,7.14,4.95,11.49,4.88,8.18.16,15.2-5.82,16.35-13.92.57-3.47-.08-7.02-1.84-10.06l-5.45-9.64c-2.98-5.25-4.08-11.37-3.1-17.34.86-6.03,3.74-11.59,8.16-15.77,10.83-10.56,28.17-10.34,38.73.49,4.36,4.47,7.06,10.29,7.65,16.5.62,6.15-.84,12.33-4.16,17.55l-6.44-3.72Z" style="fill:url(#Degradado_sin_nombre_5-9); opacity:.7; stroke-width:0px;"/><path id="Trazado_24-2" d="m299.16,196.97c5.14-7.81,4.17-18.14-2.31-24.87-3.62-3.95-8.73-6.2-14.09-6.19-10.08.04-18.65,7.36-20.27,17.31-.6,4.28.26,8.63,2.42,12.36l5.45,9.64c2.6,4.56,3.55,9.87,2.71,15.04-.77,5.2-3.27,9.99-7.1,13.6-9.4,9.13-24.43,8.92-33.56-.49-.04-.04-.07-.08-.11-.12-2.91-3.01-4.95-6.74-5.91-10.82-1.02-4.03-.96-8.26.15-12.26l7.26,2.18c-1.74,5.87-.42,11.09,3.96,15.65,2.97,3.17,7.14,4.95,11.49,4.88,8.18.16,15.2-5.82,16.35-13.92.57-3.47-.08-7.02-1.84-10.06l-5.45-9.64c-2.98-5.26-4.08-11.37-3.1-17.34.86-6.03,3.74-11.59,8.16-15.77,10.83-10.56,28.17-10.34,38.73.49,4.36,4.47,7.06,10.29,7.65,16.5.62,6.15-.84,12.33-4.16,17.55l-6.45-3.72Z" style="fill:url(#Degradado_sin_nombre_5-10); opacity:.7; stroke-width:0px;"/><path id="Trazado_25-2" d="m416.7,162.01c5.14-7.81,4.17-18.14-2.31-24.87-3.62-3.95-8.73-6.2-14.09-6.19-10.08.04-18.65,7.36-20.27,17.31-.6,4.28.26,8.63,2.42,12.36l5.45,9.64c2.6,4.56,3.55,9.87,2.71,15.04-.77,5.2-3.27,9.99-7.1,13.6-9.4,9.13-24.43,8.92-33.56-.49-.04-.04-.07-.08-.11-.12-2.91-3.01-4.95-6.74-5.91-10.82-1.02-4.03-.96-8.26.15-12.26l7.26,2.18c-1.74,5.87-.42,11.09,3.96,15.65,2.97,3.17,7.14,4.95,11.49,4.88,8.18.16,15.2-5.82,16.35-13.92.57-3.47-.08-7.02-1.84-10.06l-5.45-9.64c-2.98-5.26-4.08-11.37-3.1-17.34.86-6.03,3.74-11.59,8.16-15.77,10.83-10.56,28.17-10.34,38.73.49,4.36,4.47,7.06,10.29,7.65,16.5.62,6.15-.84,12.33-4.16,17.55l-6.44-3.72Z" style="fill:url(#Degradado_sin_nombre_5-11); opacity:.7; stroke-width:0px;"/><path id="Trazado_26-2" d="m467.93,80.35c5.14-7.81,4.18-18.14-2.31-24.87-3.62-3.95-8.73-6.2-14.09-6.19-5.29-.1-10.39,1.95-14.14,5.69-6.73,6.13-8.27,16.11-3.71,23.98l5.45,9.64c2.6,4.56,3.55,9.87,2.71,15.04-.77,5.2-3.27,9.99-7.1,13.6-9.4,9.13-24.43,8.92-33.56-.49-.04-.04-.07-.08-.11-.12-2.91-3.01-4.95-6.74-5.91-10.82-1.02-4.03-.96-8.26.15-12.26l7.26,2.18c-1.74,5.87-.42,11.09,3.96,15.65,2.97,3.17,7.14,4.95,11.49,4.88,8.18.16,15.2-5.82,16.35-13.92.57-3.47-.08-7.02-1.84-10.06l-5.45-9.64c-2.98-5.26-4.07-11.37-3.1-17.34.86-6.03,3.74-11.59,8.16-15.77,10.92-10.56,28.32-10.27,38.88.65.02.02.03.03.05.05,4.31,4.4,6.95,10.16,7.46,16.3.62,6.15-.84,12.33-4.16,17.55l-6.45-3.72Z" style="fill:url(#Degradado_sin_nombre_5-12); opacity:.7; stroke-width:0px;"/><path id="Trazado_21-3" d="m132.64,318.32c5.14-7.81,4.17-18.14-2.31-24.87-3.62-3.95-8.73-6.2-14.09-6.19-10.08.04-18.65,7.36-20.27,17.31-.6,4.28.26,8.63,2.42,12.36l5.45,9.64c2.6,4.56,3.55,9.87,2.71,15.04-.77,5.2-3.27,9.99-7.1,13.6-9.4,9.13-24.43,8.92-33.56-.49-.04-.04-.07-.08-.11-.11-2.91-3.01-4.95-6.74-5.91-10.82-1.02-4.03-.96-8.26.15-12.26l7.26,2.18c-1.74,5.87-.42,11.09,3.96,15.65,2.97,3.17,7.14,4.95,11.49,4.88,8.18.16,15.2-5.82,16.35-13.92.57-3.47-.08-7.02-1.84-10.06l-5.45-9.64c-2.98-5.26-4.08-11.37-3.1-17.34.86-6.03,3.74-11.59,8.16-15.77,10.83-10.56,28.17-10.34,38.73.49,4.36,4.47,7.06,10.29,7.65,16.5.62,6.15-.84,12.33-4.16,17.55l-6.44-3.72Z" style="fill:url(#Degradado_sin_nombre_5-13); opacity:.6; stroke-width:0px;"/><path id="Trazado_22-3" d="m125.2,248.89c5.14-7.81,4.17-18.14-2.31-24.87-3.62-3.95-8.73-6.2-14.09-6.19-10.08.04-18.65,7.36-20.27,17.31-.6,4.28.26,8.63,2.42,12.36l5.45,9.64c2.6,4.56,3.55,9.87,2.71,15.04-.77,5.2-3.27,9.99-7.1,13.6-9.4,9.13-24.43,8.92-33.56-.49-.04-.04-.07-.08-.11-.12-2.91-3.01-4.95-6.74-5.91-10.82-1.02-4.03-.96-8.26.15-12.26l7.26,2.18c-1.74,5.87-.42,11.09,3.96,15.65,2.97,3.17,7.14,4.95,11.49,4.88,8.18.16,15.2-5.82,16.35-13.92.57-3.47-.08-7.02-1.84-10.06l-5.45-9.64c-2.98-5.26-4.07-11.37-3.1-17.34.86-6.03,3.74-11.59,8.16-15.77,10.83-10.56,28.17-10.34,38.73.49,4.36,4.47,7.06,10.29,7.65,16.5.62,6.15-.84,12.33-4.16,17.55l-6.45-3.72Z" style="fill:url(#Degradado_sin_nombre_5-14); opacity:.7; stroke-width:0px;"/><path id="Trazado_23-3" d="m181.8,229.12c5.14-7.81,4.17-18.14-2.31-24.87-3.62-3.95-8.73-6.2-14.09-6.19-10.08.04-18.65,7.36-20.27,17.31-.6,4.28.26,8.63,2.42,12.36l5.45,9.64c2.6,4.56,3.55,9.87,2.71,15.04-.77,5.2-3.27,9.99-7.1,13.6-9.4,9.13-24.43,8.92-33.56-.49-.04-.04-.07-.08-.11-.11-2.91-3.01-4.95-6.75-5.91-10.82-1.02-4.03-.96-8.26.15-12.26l7.26,2.18c-1.74,5.87-.42,11.09,3.96,15.65,2.97,3.17,7.14,4.95,11.49,4.88,8.18.16,15.2-5.82,16.35-13.92.57-3.47-.08-7.02-1.84-10.06l-5.45-9.64c-2.98-5.25-4.08-11.37-3.1-17.34.86-6.03,3.74-11.59,8.16-15.77,10.83-10.56,28.17-10.34,38.73.49,4.36,4.47,7.06,10.29,7.65,16.5.62,6.15-.84,12.33-4.16,17.55l-6.44-3.72Z" style="fill:url(#Degradado_sin_nombre_5-15); opacity:.7; stroke-width:0px;"/><path id="Trazado_24-3" d="m73.5,334.18c5.14-7.81,4.17-18.14-2.31-24.87-3.62-3.95-8.73-6.2-14.09-6.19-10.08.04-18.65,7.36-20.27,17.31-.6,4.28.26,8.63,2.42,12.36l5.45,9.64c2.6,4.56,3.55,9.87,2.71,15.04-.77,5.2-3.27,9.99-7.1,13.6-9.4,9.13-24.43,8.92-33.56-.49-.04-.04-.07-.08-.11-.12-2.91-3.01-4.95-6.74-5.91-10.82-1.02-4.03-.96-8.26.15-12.26l7.26,2.18c-1.74,5.87-.42,11.09,3.96,15.65,2.97,3.17,7.14,4.95,11.49,4.88,8.18.16,15.2-5.82,16.35-13.92.57-3.47-.08-7.02-1.84-10.06l-5.45-9.64c-2.98-5.26-4.08-11.37-3.1-17.34.86-6.03,3.74-11.59,8.16-15.77,10.83-10.56,28.17-10.34,38.73.49,4.36,4.47,7.06,10.29,7.65,16.5.62,6.15-.84,12.33-4.16,17.55l-6.45-3.72Z" style="fill:url(#Degradado_sin_nombre_5-16); opacity:.6; stroke-width:0px;"/><path id="Trazado_25-3" d="m191.04,299.22c5.14-7.81,4.17-18.14-2.31-24.87-3.62-3.95-8.73-6.2-14.09-6.19-10.08.04-18.65,7.36-20.27,17.31-.6,4.28.26,8.63,2.42,12.36l5.45,9.64c2.6,4.56,3.55,9.87,2.71,15.04-.77,5.2-3.27,9.99-7.1,13.6-9.4,9.13-24.43,8.92-33.56-.49-.04-.04-.07-.08-.11-.12-2.91-3.01-4.95-6.74-5.91-10.82-1.02-4.03-.96-8.26.15-12.26l7.26,2.18c-1.74,5.87-.42,11.09,3.96,15.65,2.97,3.17,7.14,4.95,11.49,4.88,8.18.16,15.2-5.82,16.35-13.92.57-3.47-.08-7.02-1.84-10.06l-5.45-9.64c-2.98-5.26-4.08-11.37-3.1-17.34.86-6.03,3.74-11.59,8.16-15.77,10.83-10.56,28.17-10.34,38.73.49,4.36,4.47,7.06,10.29,7.65,16.5.62,6.15-.84,12.33-4.16,17.55l-6.44-3.72Z" style="fill:url(#Degradado_sin_nombre_5-17); opacity:.6; stroke-width:0px;"/><path id="Trazado_26-3" d="m242.27,217.55c5.14-7.81,4.18-18.14-2.31-24.87-3.62-3.95-8.73-6.2-14.09-6.19-5.29-.1-10.39,1.95-14.14,5.69-6.73,6.13-8.27,16.11-3.71,23.98l5.45,9.64c2.6,4.56,3.55,9.87,2.71,15.04-.77,5.2-3.27,9.99-7.1,13.6-9.4,9.13-24.43,8.92-33.56-.49-.04-.04-.07-.08-.11-.12-2.91-3.01-4.95-6.74-5.91-10.82-1.02-4.03-.96-8.26.15-12.26l7.26,2.18c-1.74,5.87-.42,11.09,3.96,15.65,2.97,3.17,7.14,4.95,11.49,4.88,8.18.16,15.2-5.82,16.35-13.92.57-3.47-.08-7.02-1.84-10.06l-5.45-9.64c-2.98-5.26-4.07-11.37-3.1-17.34.86-6.03,3.74-11.59,8.16-15.77,10.92-10.56,28.32-10.27,38.88.65.02.02.03.03.05.05,4.31,4.4,6.95,10.16,7.46,16.3.62,6.15-.84,12.33-4.16,17.55l-6.45-3.72Z" style="fill:url(#Degradado_sin_nombre_5-18); opacity:.7; stroke-width:0px;"/><path id="Trazado_21-4" d="m260.09,355.93c5.14-7.81,4.17-18.14-2.31-24.87-3.62-3.95-8.73-6.2-14.09-6.19-10.08.04-18.65,7.36-20.27,17.31-.6,4.28.26,8.63,2.42,12.36l5.45,9.64c2.6,4.56,3.55,9.87,2.71,15.04-.77,5.2-3.27,9.99-7.1,13.6-9.4,9.13-24.43,8.92-33.56-.49-.04-.04-.07-.08-.11-.11-2.91-3.01-4.95-6.74-5.91-10.82-1.02-4.03-.96-8.26.15-12.26l7.26,2.18c-1.74,5.87-.42,11.09,3.96,15.65,2.97,3.17,7.14,4.95,11.49,4.88,8.18.16,15.2-5.82,16.35-13.92.57-3.47-.08-7.02-1.84-10.06l-5.45-9.64c-2.98-5.26-4.08-11.37-3.1-17.34.86-6.03,3.74-11.59,8.16-15.77,10.83-10.56,28.17-10.34,38.73.49,4.36,4.47,7.06,10.29,7.65,16.5.62,6.15-.84,12.33-4.16,17.55l-6.44-3.72Z" style="fill:url(#Degradado_sin_nombre_5-19); opacity:.5; stroke-width:0px;"/><path id="Trazado_22-4" d="m252.66,286.5c5.14-7.81,4.17-18.14-2.31-24.87-3.62-3.95-8.73-6.2-14.09-6.19-10.08.04-18.65,7.36-20.27,17.31-.6,4.28.26,8.63,2.42,12.36l5.45,9.64c2.6,4.56,3.55,9.87,2.71,15.04-.77,5.2-3.27,9.99-7.1,13.6-9.4,9.13-24.43,8.92-33.56-.49-.04-.04-.07-.08-.11-.12-2.91-3.01-4.95-6.74-5.91-10.82-1.02-4.03-.96-8.26.15-12.26l7.26,2.18c-1.74,5.87-.42,11.09,3.96,15.65,2.97,3.17,7.14,4.95,11.49,4.88,8.18.16,15.2-5.82,16.35-13.92.57-3.47-.08-7.02-1.84-10.06l-5.45-9.64c-2.98-5.26-4.07-11.37-3.1-17.34.86-6.03,3.74-11.59,8.16-15.77,10.83-10.56,28.17-10.34,38.73.49,4.36,4.47,7.06,10.29,7.65,16.5.62,6.15-.84,12.33-4.16,17.55l-6.45-3.72Z" style="fill:url(#Degradado_sin_nombre_5-20); opacity:.6; stroke-width:0px;"/><path id="Trazado_23-4" d="m309.25,266.73c5.14-7.81,4.17-18.14-2.31-24.87-3.62-3.95-8.73-6.2-14.09-6.19-10.08.04-18.65,7.36-20.27,17.31-.6,4.28.26,8.63,2.42,12.36l5.45,9.64c2.6,4.56,3.55,9.87,2.71,15.04-.77,5.2-3.27,9.99-7.1,13.6-9.4,9.13-24.43,8.92-33.56-.49-.04-.04-.07-.08-.11-.11-2.91-3.01-4.95-6.75-5.91-10.82-1.02-4.03-.96-8.26.15-12.26l7.26,2.18c-1.74,5.87-.42,11.09,3.96,15.65,2.97,3.17,7.14,4.95,11.49,4.88,8.18.16,15.2-5.82,16.35-13.92.57-3.47-.08-7.02-1.84-10.06l-5.45-9.64c-2.98-5.25-4.08-11.37-3.1-17.34.86-6.03,3.74-11.59,8.16-15.77,10.83-10.56,28.17-10.34,38.73.49,4.36,4.47,7.06,10.29,7.65,16.5.62,6.15-.84,12.33-4.16,17.55l-6.44-3.72Z" style="fill:url(#Degradado_sin_nombre_5-21); opacity:.6; stroke-width:0px;"/><path id="Trazado_24-4" d="m200.95,371.79c5.14-7.81,4.17-18.14-2.31-24.87-3.62-3.95-8.73-6.2-14.09-6.19-10.08.04-18.65,7.36-20.27,17.31-.6,4.28.26,8.63,2.42,12.36l5.45,9.64c2.6,4.56,3.55,9.87,2.71,15.04-.77,5.2-3.27,9.99-7.1,13.6-9.4,9.13-24.43,8.92-33.56-.49-.04-.04-.07-.08-.11-.12-2.91-3.01-4.95-6.74-5.91-10.82-1.02-4.03-.96-8.26.15-12.26l7.26,2.18c-1.74,5.87-.42,11.09,3.96,15.65,2.97,3.17,7.14,4.95,11.49,4.88,8.18.16,15.2-5.82,16.35-13.92.57-3.47-.08-7.02-1.84-10.06l-5.45-9.64c-2.98-5.26-4.08-11.37-3.1-17.34.86-6.03,3.74-11.59,8.16-15.77,10.83-10.56,28.17-10.34,38.73.49,4.36,4.47,7.06,10.29,7.65,16.5.62,6.15-.84,12.33-4.16,17.55l-6.45-3.72Z" style="fill:url(#Degradado_sin_nombre_5-22); opacity:.5; stroke-width:0px;"/><path id="Trazado_25-4" d="m318.5,336.83c5.14-7.81,4.17-18.14-2.31-24.87-3.62-3.95-8.73-6.2-14.09-6.19-10.08.04-18.65,7.36-20.27,17.31-.6,4.28.26,8.63,2.42,12.36l5.45,9.64c2.6,4.56,3.55,9.87,2.71,15.04-.77,5.2-3.27,9.99-7.1,13.6-9.4,9.13-24.43,8.92-33.56-.49-.04-.04-.07-.08-.11-.12-2.91-3.01-4.95-6.74-5.91-10.82-1.02-4.03-.96-8.26.15-12.26l7.26,2.18c-1.74,5.87-.42,11.09,3.96,15.65,2.97,3.17,7.14,4.95,11.49,4.88,8.18.16,15.2-5.82,16.35-13.92.57-3.47-.08-7.02-1.84-10.06l-5.45-9.64c-2.98-5.26-4.08-11.37-3.1-17.34.86-6.03,3.74-11.59,8.16-15.77,10.83-10.56,28.17-10.34,38.73.49,4.36,4.47,7.06,10.29,7.65,16.5.62,6.15-.84,12.33-4.16,17.55l-6.44-3.72Z" style="fill:url(#Degradado_sin_nombre_5-23); opacity:.5; stroke-width:0px;"/><path id="Trazado_26-4" d="m369.72,255.16c5.14-7.81,4.18-18.14-2.31-24.87-3.62-3.95-8.73-6.2-14.09-6.19-5.29-.1-10.39,1.95-14.14,5.69-6.73,6.13-8.27,16.11-3.71,23.98l5.45,9.64c2.6,4.56,3.55,9.87,2.71,15.04-.77,5.2-3.27,9.99-7.1,13.6-9.4,9.13-24.43,8.92-33.56-.49-.04-.04-.07-.08-.11-.12-2.91-3.01-4.95-6.74-5.91-10.82-1.02-4.03-.96-8.26.15-12.26l7.26,2.18c-1.74,5.87-.42,11.09,3.96,15.65,2.97,3.17,7.14,4.95,11.49,4.88,8.18.16,15.2-5.82,16.35-13.92.57-3.47-.08-7.02-1.84-10.06l-5.45-9.64c-2.98-5.26-4.07-11.37-3.1-17.34.86-6.03,3.74-11.59,8.16-15.77,10.92-10.56,28.32-10.27,38.88.65.02.02.03.03.05.05,4.31,4.4,6.95,10.16,7.46,16.3.62,6.15-.84,12.33-4.16,17.55l-6.45-3.72Z" style="fill:url(#Degradado_sin_nombre_5-24); opacity:.6; stroke-width:0px;"/></g></g></g></svg>