<svg id="Grupo_430" data-name="Grupo 430" xmlns="http://www.w3.org/2000/svg" width="82.31" height="46" viewBox="0 0 82.31 46">
  <path id="Trazado_681" data-name="Trazado 681" d="M15.424,13.141,15.311,23.61A1.423,1.423,0,0,1,14.124,25a.027.027,0,0,0-.018,0,1.428,1.428,0,0,1-1.559-.935L6.278,6.357l-2.3,9.254a1.427,1.427,0,0,1-2.543.483L0,13.944.185,11.42l.4-.063a1.424,1.424,0,0,1,1.373.574l2.7-10.853A1.411,1.411,0,0,1,5.971,0,1.426,1.426,0,0,1,7.384.945l5.167,14.607.027-2.411Z" transform="translate(54.668 0.453)" fill="#f2f2f2"/>
  <path id="Trazado_682" data-name="Trazado 682" d="M14.352,25.922a1.883,1.883,0,0,1-1.769-1.252L6.815,8.377l-1.94,7.8a1.878,1.878,0,0,1-3.347.638L0,14.519l.222-3.036.751-.119a1.878,1.878,0,0,1,1.182.2L4.684,1.42a1.877,1.877,0,0,1,3.588-.174L12.59,13.454l0-.312h3.749l-.118,10.926a1.863,1.863,0,0,1-1.421,1.8l-.009.011-.159.025a1.858,1.858,0,0,1-.283.021M6.664,5.243l6.77,19.126a.979.979,0,0,0,.918.65L14.366,25l.172,0a.975.975,0,0,0,.782-.938l.108-10.015H13.487l-.051,4.511L7.42,1.549a.973.973,0,0,0-1.859.088L2.62,13.438l-.57-.791a.968.968,0,0,0-.938-.391l-.041.007L.923,14.276,2.269,16.3A.976.976,0,0,0,4,15.954Z" transform="translate(54.207 0)" fill="#f2f2f2"/>
  <path id="Trazado_683" data-name="Trazado 683" d="M15.528,0,14.67,3.672H0V0Z" transform="translate(66.782 9.922)" fill="#f2f2f2"/>
  <path id="Trazado_684" data-name="Trazado 684" d="M14.332,3.555V0H.792L0,3.555Z" transform="translate(38.234 32.188)" fill="#f2f2f2"/>
  <path id="Trazado_685" data-name="Trazado 685" d="M16.353,3.5V0H.9L0,3.5Z" transform="translate(34.83 25.317)" fill="#f2f2f2"/>
  <path id="Trazado_686" data-name="Trazado 686" d="M16.641,3.536V0H.92L0,3.536Z" transform="translate(20.712 18.287)" fill="#f2f2f2"/>
  <path id="Trazado_687" data-name="Trazado 687" d="M11.36,3.509V0H.628L0,3.509Z" transform="translate(24.288 11.317)" fill="#f2f2f2"/>
  <path id="Trazado_688" data-name="Trazado 688" d="M21.523,3.509V0H1.19L0,3.509Z" transform="translate(33.953 11.317)" fill="#f2f2f2"/>
  <path id="Trazado_689" data-name="Trazado 689" d="M16.236,3.395l0-3.382L.9,0,0,3.382Z" transform="translate(20.966 4.424)" fill="#f2f2f2"/>
  <path id="Trazado_690" data-name="Trazado 690" d="M14.516,3.489V0H.8L0,3.489Z" transform="translate(20.897 39.109)" fill="#f2f2f2"/>
  <path id="Trazado_691" data-name="Trazado 691" d="M3.269,33.451a8.894,8.894,0,0,0,3.269,5.156A8.993,8.993,0,0,0,12.2,40.556a8.721,8.721,0,0,0,6.508-2.672,8.889,8.889,0,0,0,2.61-6.445,8.817,8.817,0,0,0-6.727-8.8L9.683,21.378a10.475,10.475,0,0,1-5.816-3.867,10.649,10.649,0,0,1-2.232-6.634,10.485,10.485,0,0,1,3.176-7.7A10.488,10.488,0,0,1,12.513,0a10.671,10.671,0,0,1,5.439,1.478,10.9,10.9,0,0,1,3.992,3.929l-3.018,1.7a6.881,6.881,0,0,0-6.413-3.648A7.052,7.052,0,0,0,7.262,5.691a7.215,7.215,0,0,0-2.17,5.187,7.25,7.25,0,0,0,1.572,4.59,6.93,6.93,0,0,0,3.9,2.579l4.9,1.257a12.11,12.11,0,0,1,6.7,4.464,12.27,12.27,0,0,1,2.609,7.671,12.04,12.04,0,0,1-3.71,8.929A12.2,12.2,0,0,1,12.2,44.014a12.081,12.081,0,0,1-7.734-2.7A12.557,12.557,0,0,1,0,34.394Z" transform="translate(30.837 1.986)" fill="#f2f2f2"/>
  <path id="Trazado_692" data-name="Trazado 692" d="M0,0V3.489H13.714L14.516,0Z" transform="translate(2.692 39.169)" fill="#f2f2f2"/>
  <path id="Trazado_693" data-name="Trazado 693" d="M14.516,3.489V0H.8L0,3.489Z" transform="translate(0 39.17)" fill="#f2f2f2"/>
  <path id="Trazado_694" data-name="Trazado 694" d="M0,0V3.434H13.714L14.516,0Z" transform="translate(13.14 32.301)" fill="#f2f2f2"/>
  <path id="Trazado_695" data-name="Trazado 695" d="M14.516,3.434V0H.8L0,3.434Z" transform="translate(10.447 32.302)" fill="#f2f2f2"/>
  <path id="Trazado_696" data-name="Trazado 696" d="M0,0V3.5H13.714l.8-3.5Z" transform="translate(16.656 25.266)" fill="#f2f2f2"/>
  <path id="Trazado_697" data-name="Trazado 697" d="M14.516,3.5V0H.8L0,3.5Z" transform="translate(13.843 25.266)" fill="#f2f2f2"/>
  <path id="Trazado_698" data-name="Trazado 698" d="M0,0V3.536H13.714L14.516,0Z" transform="translate(2.721 18.259)" fill="#f2f2f2"/>
  <path id="Trazado_699" data-name="Trazado 699" d="M14.516,3.536V0H.8L0,3.536Z" transform="translate(0.029 18.259)" fill="#f2f2f2"/>
  <path id="Trazado_700" data-name="Trazado 700" d="M0,0V3.509H13.714L14.516,0Z" transform="translate(6.195 11.272)" fill="#f2f2f2"/>
  <path id="Trazado_701" data-name="Trazado 701" d="M14.516,3.509V0H.8L0,3.509Z" transform="translate(3.503 11.272)" fill="#f2f2f2"/>
</svg>
